<?xml version="1.0" standalone="no"?><!DOCTYPE svg PUBLIC "-//W3C//DTD SVG 1.1//EN" "http://www.w3.org/Graphics/SVG/1.1/DTD/svg11.dtd"><svg class="icon" width="200px" height="200.00px" viewBox="0 0 1024 1024" version="1.1" xmlns="http://www.w3.org/2000/svg"><path d="M133.481578 78.518575h199.240885v54.963003H133.481578v199.240885H78.518575V78.518575h54.963003z m0 815.297627h199.240885v54.963003H78.518575v-254.203888h54.963003v199.240885zM948.779205 133.481578v199.240885h-54.963003V133.481578h-199.240885V78.518575h254.203888v54.963003z m-54.963003 815.297627h-199.240885v-54.963003h199.240885v-199.240885h54.963003v254.203888h-54.963003z" fill="#ffffff" fill-opacity=".5" /><path d="M117.777863 493.999617v39.259287H0v-39.259287h117.777863z m785.185753 0h117.777863v39.259287h-117.777863v-39.259287z m-372.963233-372.963233h-39.259287v-117.777863h39.259287v117.777863z m0 785.185753v117.777863h-39.259287v-117.777863h39.259287z" fill="#ffffff" /><path d="M475.037381 810.625772a302.453552 302.453552 0 0 1-264.529081-261.663153h55.512633a247.490549 247.490549 0 0 0 209.016448 206.229038v55.434115z m70.666717 0v-55.434115a247.490549 247.490549 0 0 0 209.016448-206.229038h55.512633a302.453552 302.453552 0 0 1-264.529081 261.663153zM475.037381 210.115708v55.434114a247.490549 247.490549 0 0 0-209.958671 212.785339h-55.355595A302.414293 302.414293 0 0 1 475.037381 210.076448z m70.666717 0a302.414293 302.414293 0 0 1 265.275007 268.180194h-55.355595a247.490549 247.490549 0 0 0-209.919412-212.78534V210.154967z" fill="#ffffff" /><path d="M510.37074 655.630104a145.259364 145.259364 0 1 1 0-290.518729 145.259364 145.259364 0 0 1 0 290.518729z m0-54.963003a90.296362 90.296362 0 1 0 0-180.592723 90.296362 90.296362 0 0 0 0 180.592723z" fill="#ffffff" fill-opacity=".5" /></svg>