<?xml version="1.0" standalone="no"?><!DOCTYPE svg PUBLIC "-//W3C//DTD SVG 1.1//EN" "http://www.w3.org/Graphics/SVG/1.1/DTD/svg11.dtd"><svg class="icon" width="200px" height="200.00px" viewBox="0 0 1024 1024" version="1.1" xmlns="http://www.w3.org/2000/svg"><path d="M512 607.744c-5.632 0-11.264-0.512-16.896-1.536-3.072 20.992-11.776 45.056-29.696 70.144-73.728 113.152-160.768 261.632-31.232 279.552h1.536c151.552 24.576 338.944-59.392 237.056-260.096-29.184-60.928-58.368-100.352-81.92-129.536-16.896 25.088-46.08 41.472-78.848 41.472zM416.256 512c0-5.632 0.512-11.264 1.536-16.896-21.504-3.072-45.056-11.776-70.144-29.696-113.152-73.728-261.632-160.768-279.552-31.232v1.536c-24.576 151.552 59.392 338.944 260.096 237.056 60.928-29.184 100.352-58.368 129.536-81.92-25.088-16.896-41.472-46.08-41.472-78.848zM512 416.256c5.632 0 11.264 0.512 16.896 1.536 3.072-21.504 11.776-45.056 29.696-70.144 73.728-113.152 160.768-261.632 31.232-279.552h-1.536C436.736 43.52 249.344 127.488 351.232 328.192 380.416 389.12 409.6 428.544 433.152 457.728c16.896-25.088 46.08-41.472 78.848-41.472zM695.808 351.232c-60.928 29.184-100.352 58.368-129.536 81.92 25.088 17.408 41.472 46.08 41.472 78.848 0 5.632-0.512 11.264-1.536 16.896 21.504 3.072 45.056 11.776 70.144 29.696 113.152 73.728 261.632 160.768 279.552 31.232v-1.536c24.576-151.552-59.392-338.944-260.096-237.056zM560.64 512c0 26.624-22.016 48.64-48.64 48.64-27.136 0-48.64-22.016-48.64-48.64 0-27.136 22.016-48.64 48.64-48.64 27.136 0 48.64 22.016 48.64 48.64z" fill="#ffffff" /></svg>